<svg xmlns="http://www.w3.org/2000/svg" viewBox="0 0 459.66 127.83"><defs><style>.cls-1{isolation:isolate;}.cls-2{fill:#ff33f1;}.cls-3{fill:#39cfa9;}.cls-4{mix-blend-mode:color-dodge;}.cls-5{fill:#e0f663;}</style></defs><g class="cls-1"><g id="Layer_2" data-name="Layer 2"><g id="Layer_1-2" data-name="Layer 1"><rect class="cls-2" x="193.26" y="-149.93" width="5.5" height="388.59" transform="translate(140.63 237.55) rotate(-86.76)"/><rect class="cls-2" x="210.94" y="-156.24" width="5.5" height="425.25" transform="translate(145.31 266.54) rotate(-86.76)"/><rect class="cls-2" x="222.21" y="-156.5" width="5.5" height="449.08" transform="translate(144.31 288.79) rotate(-86.76)"/><rect class="cls-2" x="227.08" y="-150.71" width="5.5" height="460.08" transform="translate(137.63 304.3) rotate(-86.76)"/><path class="cls-3" d="M19.59,95.86,33.75,28.71H54L51,43.26H79.28c2,0,3.31-.31,4.07-.93A5.72,5.72,0,0,0,85,39.12l2.27-10.95a8.38,8.38,0,0,0,.41-2.4,2.42,2.42,0,0,0-.94-2.2,6.13,6.13,0,0,0-3.2-.6H35.08L38.69,5.48H96.23q6.94,0,10,2.47c2.05,1.64,3.07,4.16,3.07,7.54a16.34,16.34,0,0,1-.2,2.54c-.13.89-.29,1.82-.46,2.8l-3.61,17c-.8,3.75-2.22,6.48-4.27,8.22A14.15,14.15,0,0,1,93,49.13a14.25,14.25,0,0,1,6.34,2,5.76,5.76,0,0,1,2.47,5.21,12,12,0,0,1-.07,1.33c0,.44-.11.89-.2,1.33L97,80.51q-1.59,7.74-5.81,11.55t-12.75,3.8ZM81,61c.09-.45.16-.85.2-1.21a8.53,8.53,0,0,0,.07-.93,2.3,2.3,0,0,0-1.07-2.27,7.81,7.81,0,0,0-3.34-.53H48.3l-4.67,22H72.2c2,0,3.49-.33,4.34-1S78,75,78.47,72.9Z"/><path class="cls-3" d="M161.25,95.86l1.47-7.21A16,16,0,0,1,157,94.2a15.58,15.58,0,0,1-7.41,1.66H120.26q-5.34,0-7.94-1.87c-1.74-1.24-2.6-3.33-2.6-6.27a24.26,24.26,0,0,1,.66-5.07l11.48-54.34h18.7L130.41,76a11.57,11.57,0,0,0-.27,1.74q0,2.13,3.21,2.13h26.83a4.67,4.67,0,0,0,3.07-.8A5.83,5.83,0,0,0,164.72,76l10.15-47.66h18.69L179.27,95.86Z"/><path class="cls-3" d="M205.44,95.86c-3.73,0-6.43-.64-8.08-1.93s-2.47-3.32-2.47-6.08a28.87,28.87,0,0,1,.67-5.2l8.68-41.12q1.47-6.81,5.28-10t10.21-3.2h31.91l-3.48,16.15H225.87a4.75,4.75,0,0,0-3,.73,5.71,5.71,0,0,0-1.41,3l-5.74,27.37a11.07,11.07,0,0,0-.26,1.74c0,1.33,1,2,3.06,2h29L264.32,0h18.82L262.85,95.86Z"/><path class="cls-3" d="M289.28,95.86c-3.73,0-6.43-.64-8.07-1.93s-2.48-3.32-2.48-6.08a28.87,28.87,0,0,1,.67-5.2l8.68-41.12q1.47-6.81,5.28-10t10.21-3.2h31.91L332,44.46h-22.3a4.75,4.75,0,0,0-3,.73,5.71,5.71,0,0,0-1.41,3l-5.74,27.37a11.07,11.07,0,0,0-.26,1.74c0,1.33,1,2,3.07,2h29L348.16,0H367L346.7,95.86Z"/><path class="cls-3" d="M355.91,124.17,359.38,108h44.86a4.71,4.71,0,0,0,3.14-.8,6.27,6.27,0,0,0,1.4-3.07l1.87-8.28H372.2c-3.74,0-6.44-.64-8.08-1.93s-2.47-3.32-2.47-6.08a28.68,28.68,0,0,1,.66-5.2L373.8,28.31h18.69L382.21,76.77c-.09.36-.16.67-.2.94a4.25,4.25,0,0,0-.07.8q0,2.13,3.21,2.13h28.7l11.08-52.33h18.83L426.14,111c-1,4.54-2.63,7.88-4.95,10s-5.91,3.21-10.81,3.21Z"/><g class="cls-4"><path class="cls-5" d="M28.76,99.53,42.91,32.37h20.3L60.14,46.93h28.3c2,0,3.32-.31,4.07-.94a5.66,5.66,0,0,0,1.67-3.2l2.27-10.95a8.34,8.34,0,0,0,.4-2.4,2.43,2.43,0,0,0-.93-2.21,6.28,6.28,0,0,0-3.21-.6H44.25l3.6-17.49H105.4q6.94,0,10,2.47c2,1.65,3.07,4.17,3.07,7.54a17.45,17.45,0,0,1-.2,2.54c-.13.89-.29,1.83-.47,2.8l-3.6,17q-1.21,5.61-4.28,8.21a14.08,14.08,0,0,1-7.74,3.14,14.21,14.21,0,0,1,6.34,2A5.74,5.74,0,0,1,111,60c0,.45,0,.89-.06,1.33s-.12.89-.2,1.34l-4.54,21.5q-1.61,7.74-5.81,11.55c-2.81,2.53-7,3.8-12.75,3.8ZM90.17,64.68q.14-.66.21-1.2a8.32,8.32,0,0,0,.06-.94,2.27,2.27,0,0,0-1.06-2.26A7.84,7.84,0,0,0,86,59.74H57.46l-4.67,22H81.36c2,0,3.5-.33,4.34-1s1.49-2.07,1.94-4.2Z"/><path class="cls-5" d="M170.41,99.53l1.47-7.21a15.91,15.91,0,0,1-5.67,5.54,15.47,15.47,0,0,1-7.41,1.67H129.42q-5.32,0-7.94-1.87c-1.74-1.24-2.6-3.34-2.6-6.27a25.12,25.12,0,0,1,.66-5.08L131,32h18.69L139.57,79.64a11.17,11.17,0,0,0-.26,1.73c0,1.43,1.06,2.14,3.2,2.14h26.83a4.7,4.7,0,0,0,3.08-.81,5.79,5.79,0,0,0,1.47-3.06L184,32h18.69L188.44,99.53Z"/><path class="cls-5" d="M214.61,99.53c-3.74,0-6.43-.65-8.08-1.93s-2.47-3.32-2.47-6.08a28.07,28.07,0,0,1,.67-5.21l8.68-41.12c1-4.54,2.74-7.87,5.27-10S224.62,32,228.9,32h31.9l-3.47,16.15H235a4.77,4.77,0,0,0-3,.73,5.64,5.64,0,0,0-1.4,3l-5.74,27.37a11.76,11.76,0,0,0-.27,1.74c0,1.34,1,2,3.07,2h29L273.49,3.67h18.82L272,99.53Z"/><path class="cls-5" d="M298.45,99.53c-3.74,0-6.43-.65-8.08-1.93s-2.47-3.32-2.47-6.08a28.07,28.07,0,0,1,.67-5.21l8.68-41.12c1-4.54,2.74-7.87,5.27-10S308.46,32,312.74,32h31.9l-3.47,16.15H318.88a4.79,4.79,0,0,0-3,.73,5.64,5.64,0,0,0-1.4,3l-5.74,27.37a11.76,11.76,0,0,0-.27,1.74c0,1.34,1,2,3.07,2h29L357.33,3.67h18.82L355.86,99.53Z"/><path class="cls-5" d="M365.07,127.83l3.48-16.15H413.4a4.69,4.69,0,0,0,3.14-.8,6.09,6.09,0,0,0,1.4-3.07l1.87-8.28H381.36c-3.74,0-6.43-.65-8.08-1.93s-2.47-3.32-2.47-6.08a28.07,28.07,0,0,1,.67-5.21L383,32h18.69L391.37,80.44c-.08.35-.15.67-.2.93a5.49,5.49,0,0,0-.06.8c0,1.43,1.07,2.14,3.2,2.14H423L434.09,32h18.83L435.3,114.62q-1.47,6.81-4.94,10t-10.81,3.2Z"/></g></g></g></g></svg>