<svg xmlns="http://www.w3.org/2000/svg" viewBox="0 0 92 92"><defs><style>.cls-1{fill:#e0f663;}</style></defs><g id="Layer_2" data-name="Layer 2"><g id="Layer_1-2" data-name="Layer 1"><path class="cls-1" d="M66.13,48.87H25.88a2.88,2.88,0,1,1,0-5.75H66.13a2.88,2.88,0,0,1,0,5.75Z"/><path class="cls-1" d="M46,69a2.88,2.88,0,0,1-2.88-2.88V25.88a2.88,2.88,0,1,1,5.75,0V66.12A2.87,2.87,0,0,1,46,69Z"/><path class="cls-1" d="M81.46,92H10.54A10.55,10.55,0,0,1,0,81.46V10.54A10.55,10.55,0,0,1,10.54,0H81.46A10.55,10.55,0,0,1,92,10.54V81.46A10.55,10.55,0,0,1,81.46,92ZM10.54,5.75a4.8,4.8,0,0,0-4.79,4.79V81.46a4.8,4.8,0,0,0,4.79,4.79H81.46a4.8,4.8,0,0,0,4.79-4.79V10.54a4.8,4.8,0,0,0-4.79-4.79Z"/></g></g></svg>